<svg xmlns="http://www.w3.org/2000/svg" viewBox="0 0 76.72 67.21"><title>EA02_ac</title><path d="M74.12,67.21H2.61a2.65,2.65,0,0,1-1.31-.35,2.41,2.41,0,0,1-.95-1A2.65,2.65,0,0,1,0,64.6a2.8,2.8,0,0,1,.31-1.3l35.83-62a2.19,2.19,0,0,1,.92-1A2.6,2.6,0,0,1,38.36,0a2.64,2.64,0,0,1,1.31.34,2.24,2.24,0,0,1,.92,1l35.83,62a2.92,2.92,0,0,1,.3,1.3,2.64,2.64,0,0,1-.34,1.31,2.44,2.44,0,0,1-1,1A2.61,2.61,0,0,1,74.12,67.21ZM7.06,62H69.67L38.36,7.75ZM43,51.71a3.62,3.62,0,0,1-1.39,2.92,5.08,5.08,0,0,1-6.44,0,3.77,3.77,0,0,1,0-5.83,5.08,5.08,0,0,1,6.44,0A3.6,3.6,0,0,1,43,51.71ZM42.2,27.93,41,43.43q-.22,2.07-2.76,2.07c-1.54,0-2.35-.69-2.46-2.07l-1.22-15.5q-.39-4.45,3.83-4.45a3.69,3.69,0,0,1,3,1.19A4.29,4.29,0,0,1,42.2,27.93Z" transform="translate(0 0)" style="fill:#b50080"/></svg>