<svg xmlns="http://www.w3.org/2000/svg" viewBox="0 0 76.72 76.72"><title>EA03_ac</title><path d="M61.38,76.72H2.92a2.8,2.8,0,0,1-2-.88,2.78,2.78,0,0,1-.88-2V15.35a2.89,2.89,0,0,1,.88-2.12,2.89,2.89,0,0,1,4.15,0,2.93,2.93,0,0,1,.88,2.12V70.82H61.38a2.87,2.87,0,0,1,2.11.88,2.87,2.87,0,0,1,0,4.14A2.87,2.87,0,0,1,61.38,76.72ZM73.81,64.37H15.34a3,3,0,0,1-3-3V2.92a2.84,2.84,0,0,1,.88-2A2.89,2.89,0,0,1,15.34,0H73.81a2.78,2.78,0,0,1,2,.88,2.8,2.8,0,0,1,.88,2V61.38a2.87,2.87,0,0,1-.88,2.11A2.78,2.78,0,0,1,73.81,64.37ZM18.26,58.46H70.82V5.91H18.26Z" style="fill:#b50080"/></svg>