<svg xmlns="http://www.w3.org/2000/svg" viewBox="0 0 80.13 56.34"><title>EA04_bold_white</title><path d="M29.4,56.34a5.5,5.5,0,0,1-4-1.65L1.65,30.83a5.49,5.49,0,0,1,0-7.85A5.49,5.49,0,0,1,9.5,23L29.4,42.87,70.62,1.65a5.5,5.5,0,0,1,4-1.65,5.39,5.39,0,0,1,4,1.67,5.52,5.52,0,0,1,1.59,3.94,5.23,5.23,0,0,1-1.7,3.93L33.36,54.69A5.5,5.5,0,0,1,29.4,56.34Z" style="fill:#fff"/><path d="M74.59,1.7a3.63,3.63,0,0,1,2.72,1.15,3.85,3.85,0,0,1,1.12,2.76A3.53,3.53,0,0,1,77.27,8.3L32.16,53.49a3.89,3.89,0,0,1-5.52,0L2.85,29.63a3.8,3.8,0,0,1,0-5.45A3.73,3.73,0,0,1,5.58,23,3.72,3.72,0,0,1,8.3,24.18l21.1,21.1L71.83,2.85A3.73,3.73,0,0,1,74.59,1.7Z" style="fill:#fff"/></svg>