<svg xmlns="http://www.w3.org/2000/svg" viewBox="0 0 76.72 76.72"><title>EA07</title><path d="M58.92,6A38.36,38.36,0,0,1,71.81,19.64a37.29,37.29,0,0,1,4.91,18.72A37.66,37.66,0,0,1,71.51,57.7,38.88,38.88,0,0,1,57.7,71.51a37.56,37.56,0,0,1-19.34,5.21,37.29,37.29,0,0,1-18.72-4.91A38.28,38.28,0,0,1,6,58.92,36.93,36.93,0,0,1,.08,40.59H0V36.14H.08A37.38,37.38,0,0,1,5.6,18.41,37.39,37.39,0,0,1,18.41,5.6,37.45,37.45,0,0,1,36.14.08V0h4.45V.08A37,37,0,0,1,58.92,6ZM55.4,67.59a33.86,33.86,0,0,0,12.19-12.2,33,33,0,0,0,4.61-17,32.77,32.77,0,0,0-4.3-16.42,33.49,33.49,0,0,0-11.28-12,32.52,32.52,0,0,0-16-5.3V9.44a28.85,28.85,0,0,1,13.58,4.68A28.87,28.87,0,0,1,67.36,38.36a28.16,28.16,0,0,1-4,14.58A28.21,28.21,0,0,1,52.94,63.37a28.16,28.16,0,0,1-14.58,4A28.87,28.87,0,0,1,14.12,54.17,28.85,28.85,0,0,1,9.44,40.59H4.6a32.52,32.52,0,0,0,5.3,16,33.49,33.49,0,0,0,12,11.28,32.77,32.77,0,0,0,16.42,4.3A33,33,0,0,0,55.4,67.59ZM26,17.26a24.53,24.53,0,0,0-12.12,21.1A24.53,24.53,0,0,0,26,59.46a24.25,24.25,0,0,0,24.7,0,24.57,24.57,0,0,0,12.13-21.1,24.57,24.57,0,0,0-12.13-21.1,24.31,24.31,0,0,0-24.7,0Z"/></svg>