<svg xmlns="http://www.w3.org/2000/svg" viewBox="0 0 76.72 76.73"><title>EA08</title><path d="M57.7,5.22A38.88,38.88,0,0,1,71.51,19a37.63,37.63,0,0,1,5.21,19.33A37.66,37.66,0,0,1,71.51,57.7,38.88,38.88,0,0,1,57.7,71.51a37.57,37.57,0,0,1-19.34,5.22A37.54,37.54,0,0,1,19,71.51,38.8,38.8,0,0,1,5.22,57.7,37.57,37.57,0,0,1,0,38.36,37.54,37.54,0,0,1,5.22,19,38.8,38.8,0,0,1,19,5.22,37.54,37.54,0,0,1,38.36,0,37.57,37.57,0,0,1,57.7,5.22Zm-37,3A34.12,34.12,0,0,0,8.21,20.72,33.92,33.92,0,0,0,3.38,38.36,33.93,33.93,0,0,0,8.21,56,34.12,34.12,0,0,0,20.72,68.52a33.92,33.92,0,0,0,17.64,4.83A34,34,0,0,0,56,68.52,34.12,34.12,0,0,0,68.52,56a33.93,33.93,0,0,0,4.83-17.65,33.92,33.92,0,0,0-4.83-17.64A34.12,34.12,0,0,0,56,8.21,34,34,0,0,0,38.36,3.38,33.92,33.92,0,0,0,20.72,8.21ZM47.38,22.94a13.37,13.37,0,0,0-8.79-2.76A13.14,13.14,0,0,0,28.77,24Q26,26.86,26,29.23a3.23,3.23,0,0,0,.92,2.38,3.09,3.09,0,0,0,2.3.92,3.9,3.9,0,0,0,3.15-1.92,14.17,14.17,0,0,1,2.22-2.84,6.25,6.25,0,0,1,4-1.22c3.69,0,5.53,1.17,5.53,3.53,0,1.07-.8,2-2.38,2.84l-4.3,2.37a4.86,4.86,0,0,0-2.38,4.15v2.22A2.79,2.79,0,0,0,36.21,44a3.45,3.45,0,0,0,2.27.77,3.34,3.34,0,0,0,2.3-.85,2.9,2.9,0,0,0,1-2.3,3.19,3.19,0,0,1,.15-1.3,4.16,4.16,0,0,1,1.54-1.23,35.94,35.94,0,0,0,5-3.15,8.05,8.05,0,0,0,2.3-6.21A8.54,8.54,0,0,0,47.38,22.94ZM42.08,48.6a5.46,5.46,0,0,0-3.64-1.34,5.35,5.35,0,0,0-3.61,1.34,4.27,4.27,0,0,0-1.53,3.34,4.15,4.15,0,0,0,1.53,3.3,5.42,5.42,0,0,0,3.61,1.31,5.54,5.54,0,0,0,3.64-1.31,4.11,4.11,0,0,0,1.58-3.3A4.23,4.23,0,0,0,42.08,48.6Z"/></svg>