<svg xmlns="http://www.w3.org/2000/svg" viewBox="0 0 76.72 58"><title>EA09</title><path d="M76,5.72a8.86,8.86,0,0,1,.76,3.64V49a9.12,9.12,0,0,1-4.56,8,8.93,8.93,0,0,1-4.57,1.23H9.13a8.93,8.93,0,0,1-4.57-1.23,9.12,9.12,0,0,1-3.33-3.34A9,9,0,0,1,0,49V9.36A8.87,8.87,0,0,1,.77,5.72a9.21,9.21,0,0,1,2.15-3L3,2.53A9,9,0,0,1,9.13.15H67.59a9,9,0,0,1,6.14,2.38c0,.05.1.11.16.16A10.13,10.13,0,0,1,76,5.72ZM68.59,50a1.35,1.35,0,0,0,.46-1V11.74L40.59,32.3a3.85,3.85,0,0,1-2.23.69,3.79,3.79,0,0,1-2.22-.69L7.67,11.74V49a1.38,1.38,0,0,0,.46,1,1.46,1.46,0,0,0,1,.42H67.59A1.46,1.46,0,0,0,68.59,50ZM15.5,7.9,38.36,24.4,61.23,7.9Z" transform="translate(0 -0.15)"/></svg>