<svg xmlns="http://www.w3.org/2000/svg" viewBox="0 0 76.72 66.44"><title>EA0A_gray</title><path d="M76.72,4.6a4,4,0,0,1-1.65,3.19A6,6,0,0,1,71.2,9.13H5.52A6,6,0,0,1,1.65,7.79,4,4,0,0,1,0,4.56,4,4,0,0,1,1.65,1.34,6,6,0,0,1,5.52,0H71.2a6,6,0,0,1,3.87,1.34A4.09,4.09,0,0,1,76.72,4.6Zm0,28.62a4,4,0,0,1-1.65,3.19,6,6,0,0,1-3.87,1.34H5.52a6,6,0,0,1-3.87-1.34,3.9,3.9,0,0,1,0-6.37,5.93,5.93,0,0,1,3.87-1.35H71.2A5.93,5.93,0,0,1,75.07,30,4,4,0,0,1,76.72,33.22Zm0,28.62a4.06,4.06,0,0,1-1.65,3.26,5.92,5.92,0,0,1-3.87,1.34H5.52A5.92,5.92,0,0,1,1.65,65.1a4,4,0,0,1,0-6.44,5.93,5.93,0,0,1,3.87-1.35H71.2a5.93,5.93,0,0,1,3.87,1.35A4,4,0,0,1,76.72,61.84Z" style="fill:#afafaf"/></svg>