<svg xmlns="http://www.w3.org/2000/svg" viewBox="0 0 53.25 76.72"><title>EA0C_ac</title><path d="M12.35,71.74a8,8,0,0,1-.61-3.15V8.13A8,8,0,0,1,12.35,5a8.55,8.55,0,0,1,1.73-2.61A7.55,7.55,0,0,1,16.69.61,8.49,8.49,0,0,1,19.87,0H47.8a8.32,8.32,0,0,1,3.11.61,8,8,0,0,1,2.64,1.77l9.06,9.05A8.21,8.21,0,0,1,65,17.19v51.4a8,8,0,0,1-.62,3.15,8.52,8.52,0,0,1-1.72,2.61A7.86,7.86,0,0,1,60,76.11a8.31,8.31,0,0,1-3.19.61H47.42l-.31-1.38a1.18,1.18,0,0,0-.38-.65,1.08,1.08,0,0,0-.73-.27,1,1,0,0,0-.73.27,1.14,1.14,0,0,0-.39.65l-.23,1.38H32.07l-.23-1.38a1.18,1.18,0,0,0-.38-.65,1.08,1.08,0,0,0-.73-.27,1.06,1.06,0,0,0-.73.27,1.12,1.12,0,0,0-.38.65l-.31,1.38H19.87a8.3,8.3,0,0,1-3.18-.61,7.23,7.23,0,0,1-2.57-1.76A8.16,8.16,0,0,1,12.35,71.74Zm2.76-3.15a4.73,4.73,0,0,0,4.76,4.76h6.91a3.11,3.11,0,0,1,1.07-1.23,4.41,4.41,0,0,1,5.76,0,3.47,3.47,0,0,1,1,1.23h7.52a3.5,3.5,0,0,1,1-1.23,4.4,4.4,0,0,1,5.75,0A3.22,3.22,0,0,1,50,73.35h6.9a4.71,4.71,0,0,0,4.76-4.76V17.19a4.5,4.5,0,0,0-1.38-3.3L51.1,4.76a4.5,4.5,0,0,0-3.3-1.38H19.87A4.58,4.58,0,0,0,16.5,4.76a4.59,4.59,0,0,0-1.39,3.37Zm8.67-6a6.09,6.09,0,0,1-1.84-4.45V37.83a6.3,6.3,0,0,1,6.29-6.3H48.49a6.3,6.3,0,0,1,6.29,6.3V58.16a6.28,6.28,0,0,1-6.29,6.29H28.23A6.11,6.11,0,0,1,23.78,62.61Zm0-24.71h14V33.38H28.23a4.46,4.46,0,0,0-4.45,4.45Zm0,6.29h8.29v-.07a5.86,5.86,0,0,1,.69-2.77,7.17,7.17,0,0,1,1.84-2.22H23.78Zm0,6.37h8.29V49.1l.38-.15a.84.84,0,0,0,.5-.35,1,1,0,0,0,.2-.61,1,1,0,0,0-.2-.61.84.84,0,0,0-.5-.35l-.38-.15V45.5H23.78Zm0,6.29H34.6a7.06,7.06,0,0,1-1.84-2.22,5.82,5.82,0,0,1-.69-2.76v-.08H23.78Zm0,1.31a4.47,4.47,0,0,0,4.45,4.45h9.52V58.08h-14Zm14.43-19a5.05,5.05,0,0,0-3.45,1.5,4.64,4.64,0,0,0-1.46,3.49V46a2.68,2.68,0,0,1,.69.62A2.54,2.54,0,0,1,34.37,48,2.51,2.51,0,0,1,34,49.33a2.68,2.68,0,0,1-.69.62v1.92a4.74,4.74,0,0,0,1.42,3.49,4.93,4.93,0,0,0,3.41,1.49h.39a4.86,4.86,0,0,0,3.33-1.49,4.74,4.74,0,0,0,1.42-3.49v-2a1.78,1.78,0,0,1-.61-.61,2.31,2.31,0,0,1,0-2.54,1.78,1.78,0,0,1,.61-.61V44.19h9.67V39.13ZM39,37.9h14v-.07a4.44,4.44,0,0,0-4.45-4.45H39Zm14,20.18H39v4.53h9.51a4.46,4.46,0,0,0,4.45-4.45Zm0-6.29H44.5v.08a6.15,6.15,0,0,1-.65,2.76A6.59,6.59,0,0,1,42,56.85h10.9Zm0-6.29H44.5v1.38l-.38.15a.87.87,0,0,0-.43.35,1.08,1.08,0,0,0-.19.61,1.05,1.05,0,0,0,.19.61.87.87,0,0,0,.43.35l.38.15v1.46h8.44Z" transform="translate(-11.74)" style="fill:#b50080"/></svg>