<svg xmlns="http://www.w3.org/2000/svg" viewBox="0 0 40 40"><g transform="translate(-33.75 -702)"><rect width="40" height="40" transform="translate(33.75 702)" fill="none"/><g transform="translate(35.5 703.548)"><path d="M16.5,13.5H30a3,3,0,0,1,3,3V30a3,3,0,0,1-3,3H16.5a3,3,0,0,1-3-3V16.5A3,3,0,0,1,16.5,13.5Z" fill="none" stroke="#fff" stroke-linecap="round" stroke-linejoin="round" stroke-width="2"/><path d="M7.5,22.5H6a3,3,0,0,1-3-3V6A3,3,0,0,1,6,3H19.5a3,3,0,0,1,3,3V7.5" fill="none" stroke="#fff" stroke-linecap="round" stroke-linejoin="round" stroke-width="2"/></g></g></svg>