<svg xmlns="http://www.w3.org/2000/svg" width="500px" height="500px" x="0px" y="0px"><path fill="#FFF" d="M25,0h449.995C488.807,0,500,11.193,500,25v449.995c0,13.812-11.193,24.999-25.006,24.999H25	c-13.803,0-25-11.187-25-24.999V25C0,11.193,11.197,0,25,0"/><path fill="#B50080" d="M407.925,127.192c-0.202-0.197-0.407-0.379-0.619-0.565c-7.284-6.617-16.918-10.69-27.512-10.69H118.49	c-10.604,0-20.242,4.08-27.529,10.703c-0.199,0.177-0.395,0.353-0.586,0.534c-7.92,7.484-12.89,18.046-12.89,29.77v177.373	c0,22.616,18.395,41.009,41.005,41.009h261.304c22.608,0,41.005-18.393,41.005-41.009V156.943	C420.799,145.227,415.832,134.671,407.925,127.192 M351.571,150.419l-102.43,73.948l-102.426-73.948H351.571z M379.794,340.843	H118.49c-3.597,0-6.522-2.93-6.522-6.526V167.86l127.081,91.748c3.015,2.175,6.554,3.267,10.093,3.267	c3.54,0,7.079-1.092,10.092-3.267l127.083-91.744v166.453C386.316,337.913,383.39,340.843,379.794,340.843"/></svg>
