<svg xmlns="http://www.w3.org/2000/svg" width="500px" height="500px" x="0px" y="0px"><path fill="#4267B2" d="M472.222,0H27.777C12.438,0,0,12.438,0,27.778v444.441c0,15.334,12.438,27.777,27.777,27.777h239.299	V306.664h-64.928V230.97h64.928v-55.556c0-64.582,39.449-99.789,97.222-99.789c19.437-0.058,38.873,0.937,58.201,2.984v67.224	h-39.863c-31.317,0-37.435,14.93-37.435,36.804v48.194h74.938l-9.725,75.698h-65.213v193.467h127.021	c15.341,0,27.778-12.443,27.778-27.777V27.778C500,12.438,487.562,0,472.222,0"/><path fill="#FFF" d="M345.201,499.996V306.66h65.213l9.725-75.693h-74.938v-48.194c0-21.874,6.117-36.797,37.435-36.797h39.721	V78.467c-19.321-2.041-38.758-3.041-58.193-2.983c-57.638,0-97.223,35.207-97.223,99.789v55.556h-64.792v75.693h64.928v193.475	H345.201z"/></svg>
