<svg xmlns="http://www.w3.org/2000/svg" width="500px" height="500px" x="0px" y="0px"><path fill="#FFF" d="M472.223,0H27.778C12.438,0,0,12.438,0,27.778V472.22c0,15.34,12.438,27.777,27.778,27.777h239.3V306.666	h-64.927v-75.697h64.927v-55.555c0-64.582,39.449-99.785,97.221-99.785c19.436-0.062,38.873,0.936,58.201,2.983v67.22h-39.863	c-31.316,0-37.434,14.934-37.434,36.805v48.196h74.936l-9.725,75.697h-65.211v193.467h127.02c15.34,0,27.777-12.438,27.777-27.777	V27.778C500,12.438,487.562,0,472.223,0"/><path fill="#4267B2" d="M345.203,499.997V306.666h65.211l9.725-75.697h-74.936v-48.189c0-21.878,6.117-36.805,37.434-36.805h39.721	V78.47c-19.322-2.041-38.758-3.038-58.193-2.983c-57.637,0-97.223,35.203-97.223,99.792v55.555h-64.791v75.697h64.927v193.467	H345.203z"/></svg>
