<svg xmlns="http://www.w3.org/2000/svg" width="500px" height="500px" x="0px" y="0px"><path fill="#FFF" d="M25,0h449.996C488.803,0,500,11.193,500,25v449.996c0,13.807-11.197,24.996-25.004,24.996H25	c-13.804,0-25-11.189-25-24.996V25C0,11.193,11.196,0,25,0"/><path fill="#4285F4" d="M358,252.555c0-7.978-0.727-15.645-2.049-23.013H249.999v43.517h60.542	c-2.604,14.066-10.531,25.975-22.447,33.949l36.357,28.232C345.725,315.648,358,286.818,358,252.555"/><path fill="#34A853" d="M288.094,307.016c-10.076,6.746-22.963,10.734-38.095,10.734c-29.3,0-54.098-19.789-62.944-46.387	l-37.59,29.148c18.514,36.77,56.562,61.984,100.534,61.984c30.371,0,55.835-10.072,74.453-27.264L288.094,307.016z"/><path fill="#FBBC05" d="M187.051,228.623l-37.591-29.147c-7.619,15.188-11.966,32.369-11.966,50.523	c0,18.15,4.347,35.335,11.966,50.519l37.591-29.146c-2.252-6.748-3.53-13.957-3.53-21.373	C183.521,242.58,184.799,235.374,187.051,228.623"/><path fill="#EA4335" d="M249.999,137.498c-43.979,0-82.021,25.208-100.534,61.978l37.59,29.147	c8.84-26.591,33.645-46.383,62.944-46.383c16.517,0,31.347,5.68,43.005,16.825l32.268-32.271	C305.787,148.643,280.322,137.498,249.999,137.498"/></svg>
