<svg xmlns="http://www.w3.org/2000/svg" x="0px" y="0px" viewBox="0 0 500 500"><path fill="#1da1f2" d="M157.243,453.18c188.688,0,291.878-156.326,291.878-291.868c0-4.443-0.098-8.865-0.293-13.265	c20.03-14.48,37.435-32.547,51.172-53.114c-18.381,8.165-38.151,13.666-58.919,16.146c21.181-12.701,37.456-32.791,45.106-56.744	c-19.824,11.757-41.765,20.296-65.115,24.897c-18.729-19.933-45.399-32.411-74.892-32.411c-56.662,0-102.594,45.947-102.594,102.577	c0,8.057,0.901,15.88,2.659,23.389C160.986,168.5,85.39,127.68,34.798,65.609c-8.811,15.158-13.899,32.769-13.899,51.558	c0,35.59,18.121,67.014,45.654,85.389c-16.818-0.51-32.634-5.143-46.452-12.82c-0.021,0.418-0.021,0.853-0.021,1.297	c0,49.691,35.352,91.162,82.297,100.57c-8.62,2.344-17.687,3.613-27.045,3.613c-6.608,0-13.032-0.662-19.287-1.844	c13.054,40.754,50.933,70.41,95.833,71.244c-35.123,27.508-79.346,43.902-127.414,43.902c-8.273,0-16.434-0.477-24.463-1.41	C45.399,436.197,99.311,453.18,157.243,453.18"/></svg>